<svg id="svg" version="1.1" xmlns="http://www.w3.org/2000/svg" xmlns:xlink="http://www.w3.org/1999/xlink" width="400" height="424.02826855123675" viewBox="0, 0, 400,424.02826855123675"><g id="svgg"><path id="path0" d="M173.614 67.574 C 172.955 68.805,173.044 229.633,173.704 230.536 C 174.357 231.429,213.109 231.584,213.673 230.695 C 213.846 230.423,213.991 215.701,213.994 197.980 C 213.999 173.460,214.115 165.645,214.480 165.280 C 214.844 164.916,221.291 164.800,241.051 164.800 C 264.238 164.800,267.213 164.730,267.771 164.171 C 268.415 163.528,268.770 138.229,268.157 136.633 C 267.939 136.065,265.228 135.999,241.657 135.994 C 225.818 135.990,215.162 135.837,214.800 135.609 C 214.044 135.131,213.666 98.172,214.403 96.795 C 214.822 96.012,215.305 96.000,245.914 95.994 C 264.789 95.990,277.236 95.839,277.600 95.609 C 278.239 95.205,278.778 71.143,278.216 68.146 L 277.964 66.800 225.996 66.800 C 175.026 66.800,174.020 66.815,173.614 67.574 M155.226 327.818 C 153.370 328.108,151.480 328.521,151.026 328.736 C 150.571 328.952,149.300 329.536,148.200 330.036 C 143.382 332.222,140.291 335.520,138.404 340.487 C 136.854 344.563,136.615 344.400,144.172 344.400 L 150.744 344.400 151.640 342.606 C 154.975 335.928,165.389 335.681,167.116 342.240 C 168.798 348.624,165.832 352.118,158.282 352.646 C 153.609 352.973,153.600 352.983,153.600 357.600 C 153.600 361.935,153.881 362.398,156.514 362.408 C 164.377 362.438,167.825 364.341,169.057 369.334 C 170.801 376.399,166.543 381.190,158.950 380.708 C 155.492 380.488,151.200 378.085,151.200 376.368 C 151.200 376.200,150.734 375.508,150.164 374.831 L 149.129 373.600 143.426 373.600 C 135.735 373.600,135.476 373.923,138.282 380.000 C 144.095 392.588,168.663 395.211,179.495 384.400 C 183.092 380.810,183.785 378.876,183.793 372.400 C 183.804 363.949,181.829 361.227,173.100 357.666 C 171.458 356.996,171.720 356.591,174.859 354.941 C 181.813 351.287,184.108 344.463,180.762 337.383 C 178.998 333.648,173.789 329.200,171.180 329.200 C 170.839 329.200,170.389 329.032,170.180 328.826 C 169.769 328.422,161.463 327.171,159.686 327.246 C 159.089 327.271,157.081 327.529,155.226 327.818 M211.200 327.821 C 201.852 329.144,196.115 333.669,193.236 341.988 C 191.968 345.652,191.947 373.987,193.210 377.285 C 200.750 396.979,234.296 395.620,238.978 375.431 C 241.349 365.209,237.748 356.166,229.711 352.163 L 226.600 350.613 221.000 350.606 C 215.150 350.600,213.035 351.096,210.000 353.189 C 206.574 355.551,205.315 352.001,207.056 344.882 C 209.178 336.200,222.386 334.564,224.957 342.665 C 225.420 344.125,236.459 344.775,237.593 343.408 C 239.332 341.313,234.291 332.787,230.000 330.565 C 226.957 328.990,217.356 326.831,215.215 327.241 C 215.097 327.264,213.290 327.525,211.200 327.821 M266.159 327.971 C 258.565 329.188,252.795 333.705,250.125 340.525 L 249.000 343.400 249.000 359.413 C 249.000 376.838,248.875 375.709,251.353 380.708 C 252.671 383.366,257.960 388.400,259.435 388.400 C 259.569 388.400,260.246 388.661,260.940 388.981 C 272.890 394.489,288.951 389.939,293.861 379.654 C 297.137 372.793,296.969 345.103,293.610 338.280 C 289.594 330.123,278.572 325.983,266.159 327.971 M276.580 338.441 C 278.439 339.437,279.515 340.708,280.591 343.182 C 281.880 346.143,281.815 372.506,280.512 375.303 C 276.976 382.895,266.230 382.161,263.804 374.161 C 262.892 371.157,262.933 347.243,263.855 344.072 C 265.481 338.477,271.598 335.770,276.580 338.441 M221.351 361.392 C 226.687 364.519,226.194 376.234,220.599 379.290 C 212.301 383.821,204.062 375.833,206.814 365.924 C 208.020 361.584,216.935 358.805,221.351 361.392 " stroke="none" fill="#fbf8f5" fill-rule="evenodd"></path><path id="path1" d="M60.000 0.400 C 60.000 0.620,59.730 0.800,59.400 0.800 C 59.070 0.800,58.800 1.070,58.800 1.400 C 58.800 1.922,58.069 2.200,57.100 2.047 C 56.935 2.021,56.786 2.405,56.768 2.900 C 56.750 3.418,56.645 3.569,56.520 3.255 C 56.381 2.905,56.210 2.860,56.044 3.129 C 55.902 3.359,55.248 3.627,54.593 3.723 C 53.937 3.819,53.439 4.083,53.487 4.309 C 53.534 4.535,53.129 4.831,52.587 4.968 C 52.044 5.104,51.600 5.482,51.600 5.808 C 51.600 6.140,51.237 6.400,50.773 6.400 C 50.319 6.400,49.358 6.849,48.638 7.398 C 47.918 7.947,47.195 8.262,47.031 8.098 C 46.867 7.934,46.793 8.070,46.867 8.400 C 46.957 8.804,46.626 9.043,45.854 9.131 C 45.130 9.214,44.635 9.545,44.508 10.031 C 44.367 10.568,43.955 10.800,43.141 10.800 C 42.473 10.800,41.876 11.057,41.745 11.400 C 41.618 11.730,41.307 12.000,41.053 12.000 C 40.800 12.000,40.368 12.360,40.093 12.800 C 39.810 13.252,39.160 13.600,38.597 13.600 C 37.977 13.600,37.600 13.827,37.600 14.200 C 37.600 14.604,37.196 14.800,36.363 14.800 C 35.462 14.800,35.068 15.017,34.916 15.600 C 34.781 16.118,34.370 16.400,33.753 16.400 C 33.229 16.400,32.845 16.601,32.900 16.847 C 32.955 17.093,32.671 17.349,32.269 17.416 C 30.925 17.641,30.400 17.970,30.400 18.587 C 30.400 19.003,30.010 19.200,29.187 19.200 C 28.479 19.200,27.879 19.449,27.745 19.800 C 27.618 20.130,27.270 20.400,26.971 20.400 C 26.673 20.400,26.257 20.721,26.047 21.112 C 25.837 21.504,25.249 21.856,24.741 21.894 C 24.232 21.933,23.632 22.198,23.408 22.484 C 23.183 22.770,22.460 23.197,21.800 23.431 C 21.140 23.666,20.645 24.070,20.700 24.329 C 20.756 24.594,20.352 24.800,19.776 24.800 C 19.190 24.800,18.859 24.972,19.002 25.203 C 19.273 25.642,17.606 26.428,17.073 26.113 C 16.893 26.006,16.647 26.298,16.526 26.760 C 16.358 27.405,15.992 27.600,14.953 27.600 C 14.017 27.600,13.600 27.785,13.600 28.200 C 13.600 28.530,13.433 28.800,13.229 28.800 C 13.024 28.800,12.542 29.115,12.157 29.500 C 11.431 30.226,11.327 30.267,10.000 30.350 C 9.483 30.382,9.200 30.683,9.200 31.200 C 9.200 31.644,8.933 32.000,8.600 32.000 C 8.270 32.000,8.000 32.270,8.000 32.600 C 8.000 33.019,7.578 33.200,6.600 33.200 C 5.586 33.200,5.200 33.376,5.200 33.837 C 5.200 34.188,4.840 34.569,4.400 34.684 C 3.960 34.799,3.600 35.142,3.600 35.447 C 3.600 35.751,3.319 36.000,2.976 36.000 C 2.594 36.000,2.462 35.807,2.635 35.500 C 2.861 35.100,2.810 35.100,2.379 35.500 C 2.082 35.775,1.426 36.000,0.920 36.000 L 0.000 36.000 0.000 187.213 L 0.000 338.425 1.400 338.331 C 2.170 338.279,2.800 338.089,2.800 337.910 C 2.800 337.730,3.250 337.378,3.800 337.127 C 4.350 336.877,4.800 336.430,4.800 336.136 C 4.800 335.831,5.231 335.600,5.800 335.600 C 6.475 335.600,6.809 335.373,6.828 334.900 C 6.852 334.293,6.897 334.304,7.161 334.979 C 7.452 335.722,7.476 335.717,7.695 334.879 C 7.899 334.099,8.809 333.749,10.100 333.953 C 10.265 333.979,10.355 333.779,10.300 333.509 C 10.245 333.240,10.587 332.960,11.059 332.887 C 11.532 332.814,12.015 332.387,12.132 331.937 C 12.250 331.488,12.538 331.238,12.773 331.383 C 13.008 331.528,13.200 331.473,13.200 331.261 C 13.200 331.049,13.605 330.971,14.100 331.087 C 14.930 331.284,14.945 331.257,14.294 330.750 C 13.634 330.236,13.647 330.196,14.494 330.141 C 16.347 330.021,17.714 329.328,17.334 328.700 C 17.235 328.535,17.613 328.400,18.176 328.400 C 18.782 328.400,19.159 328.196,19.100 327.900 C 19.040 327.601,19.522 327.350,20.300 327.275 C 21.466 327.162,21.794 326.828,21.647 325.900 C 21.621 325.735,21.960 325.577,22.400 325.550 C 23.730 325.467,23.920 325.415,24.267 325.036 C 24.458 324.826,24.399 324.787,24.128 324.942 C 23.868 325.091,23.539 325.026,23.398 324.797 C 23.256 324.568,23.289 324.406,23.470 324.437 C 24.923 324.690,26.000 324.333,26.000 323.600 C 26.000 322.976,26.267 322.800,27.213 322.800 C 27.921 322.800,28.521 322.551,28.655 322.200 C 28.782 321.870,29.226 321.600,29.643 321.600 C 30.059 321.600,30.400 321.409,30.400 321.176 C 30.400 320.943,30.568 320.856,30.772 320.983 C 30.977 321.109,31.275 321.002,31.434 320.745 C 31.608 320.463,31.551 320.383,31.289 320.545 C 31.051 320.692,30.766 320.668,30.656 320.491 C 30.547 320.314,30.940 320.133,31.529 320.089 C 32.118 320.044,32.780 319.717,33.000 319.362 C 35.832 314.793,34.236 316.021,48.120 307.734 C 51.377 305.790,54.466 303.930,54.985 303.600 C 55.505 303.270,56.980 302.391,58.265 301.647 C 59.549 300.903,61.519 299.688,62.642 298.947 L 64.685 297.599 64.885 149.787 C 64.995 68.491,64.999 1.531,64.896 0.988 C 64.698 -0.045,60.000 -0.609,60.000 0.400 M362.588 2.820 C 362.207 3.435,362.728 3.832,363.242 3.318 C 363.529 3.031,363.536 2.807,363.262 2.639 C 363.039 2.500,362.735 2.582,362.588 2.820 M370.882 17.523 C 370.806 18.435,371.326 19.176,372.053 19.194 C 372.192 19.197,372.278 18.631,372.243 17.937 C 372.163 16.351,371.008 16.000,370.882 17.523 M172.414 66.774 C 171.616 68.264,171.861 230.986,172.661 231.651 C 173.418 232.279,214.046 232.487,214.667 231.867 C 214.850 231.684,215.090 216.744,215.200 198.667 L 215.400 165.800 242.093 165.697 L 268.786 165.594 269.005 164.697 C 269.125 164.204,269.173 157.410,269.112 149.600 L 269.000 135.400 242.200 135.200 L 215.400 135.000 215.400 116.000 L 215.400 97.000 246.982 96.800 L 278.564 96.600 278.842 95.600 C 279.186 94.364,279.293 67.507,278.957 66.633 C 278.538 65.540,173.000 65.680,172.414 66.774 M278.216 68.146 C 278.778 71.143,278.239 95.205,277.600 95.609 C 277.236 95.839,264.789 95.990,245.914 95.994 C 215.305 96.000,214.822 96.012,214.403 96.795 C 213.666 98.172,214.044 135.131,214.800 135.609 C 215.162 135.837,225.818 135.990,241.657 135.994 C 265.228 135.999,267.939 136.065,268.157 136.633 C 268.770 138.229,268.415 163.528,267.771 164.171 C 267.213 164.730,264.238 164.800,241.051 164.800 C 221.291 164.800,214.844 164.916,214.480 165.280 C 214.115 165.645,213.999 173.460,213.994 197.980 C 213.991 215.701,213.846 230.423,213.673 230.695 C 213.109 231.584,174.357 231.429,173.704 230.536 C 173.044 229.633,172.955 68.805,173.614 67.574 C 174.020 66.815,175.026 66.800,225.996 66.800 L 277.964 66.800 278.216 68.146 M154.494 327.201 C 147.360 328.704,141.327 332.710,139.054 337.453 C 138.435 338.744,137.777 340.093,137.592 340.451 C 135.488 344.513,136.442 345.200,144.187 345.200 C 151.329 345.200,151.168 345.253,152.573 342.479 C 156.290 335.144,166.600 337.040,166.600 345.058 C 166.600 350.153,164.850 351.556,158.005 351.950 C 152.726 352.254,153.030 351.953,152.863 357.046 C 152.669 362.978,152.725 363.043,158.275 363.280 C 166.431 363.629,168.886 366.104,168.302 373.389 C 167.937 377.938,165.270 380.105,160.039 380.105 C 155.902 380.105,151.200 377.415,151.200 375.048 C 151.200 372.997,137.040 372.057,135.980 374.038 C 135.437 375.051,136.596 378.491,138.691 382.088 C 144.304 391.722,162.236 394.767,175.454 388.330 C 182.889 384.709,186.709 374.638,183.999 365.803 C 183.271 363.429,178.846 359.280,175.679 358.000 C 172.706 356.799,172.703 356.785,175.100 355.612 C 180.841 352.802,182.613 349.950,182.565 343.600 C 182.474 331.585,169.543 324.031,154.494 327.201 M213.200 326.657 C 205.360 328.140,201.835 329.554,198.535 332.541 C 192.298 338.187,191.800 340.219,191.800 360.000 L 191.800 376.200 192.773 378.400 C 195.321 384.159,202.170 390.366,206.023 390.406 C 206.340 390.409,207.320 390.671,208.200 390.988 C 212.351 392.484,223.001 391.592,228.200 389.313 C 243.981 382.395,244.791 357.984,229.462 351.261 C 223.320 348.568,213.422 349.280,209.515 352.698 C 207.888 354.121,207.490 353.128,207.669 348.094 C 207.897 341.706,208.891 340.102,213.569 338.572 C 217.585 337.258,224.400 339.938,224.400 342.831 C 224.400 344.618,235.273 345.859,238.026 344.386 C 240.750 342.928,236.546 334.334,231.339 330.712 C 227.499 328.041,217.591 325.826,213.200 326.657 M265.400 327.442 C 263.860 327.743,262.240 328.153,261.800 328.352 C 249.848 333.763,247.998 337.937,248.003 359.477 C 248.008 378.724,249.920 384.055,258.429 388.534 C 271.851 395.601,288.185 391.622,294.719 379.693 C 297.860 373.958,297.747 345.502,294.556 338.600 C 292.667 334.516,288.327 330.341,284.702 329.122 C 283.986 328.881,283.220 328.550,283.000 328.386 C 281.108 326.976,270.645 326.415,265.400 327.442 M165.286 327.826 C 167.769 328.171,169.971 328.621,170.180 328.826 C 170.389 329.032,170.839 329.200,171.180 329.200 C 173.789 329.200,178.998 333.648,180.762 337.383 C 184.108 344.463,181.813 351.287,174.859 354.941 C 171.720 356.591,171.458 356.996,173.100 357.666 C 178.381 359.821,181.247 362.001,182.804 365.049 C 184.323 368.025,184.288 376.743,182.743 380.000 C 180.277 385.198,174.950 388.759,167.200 390.388 C 154.697 393.017,142.224 388.537,138.282 380.000 C 135.476 373.923,135.735 373.600,143.426 373.600 L 149.129 373.600 150.164 374.831 C 150.734 375.508,151.200 376.200,151.200 376.368 C 151.200 378.085,155.492 380.488,158.950 380.708 C 166.543 381.190,170.801 376.399,169.057 369.334 C 167.825 364.341,164.377 362.438,156.514 362.408 C 153.881 362.398,153.600 361.935,153.600 357.600 C 153.600 352.983,153.609 352.973,158.282 352.646 C 165.832 352.118,168.798 348.624,167.116 342.240 C 165.389 335.681,154.975 335.928,151.640 342.606 L 150.744 344.400 144.172 344.400 C 136.615 344.400,136.854 344.563,138.404 340.487 C 140.291 335.520,143.382 332.222,148.200 330.036 C 149.300 329.536,150.571 328.952,151.026 328.736 C 151.868 328.336,157.724 327.329,159.686 327.246 C 160.284 327.221,162.804 327.482,165.286 327.826 M220.015 327.797 C 230.148 329.116,235.845 333.302,237.588 340.708 C 238.335 343.883,238.137 344.001,232.051 343.995 C 226.205 343.988,225.325 343.823,224.957 342.665 C 222.386 334.564,209.178 336.200,207.056 344.882 C 205.315 352.001,206.574 355.551,210.000 353.189 C 213.035 351.096,215.150 350.600,221.000 350.606 L 226.600 350.613 229.711 352.163 C 243.431 358.997,242.954 381.559,228.951 388.211 C 214.463 395.092,198.114 390.095,193.210 377.285 C 191.947 373.987,191.968 345.652,193.236 341.988 C 196.115 333.669,201.852 329.144,211.200 327.821 C 213.290 327.525,215.097 327.264,215.215 327.241 C 215.334 327.219,217.494 327.469,220.015 327.797 M281.400 328.597 C 293.682 332.727,296.016 337.648,295.979 359.335 C 295.952 375.306,295.339 378.695,291.637 383.354 C 285.701 390.823,270.845 393.546,260.940 388.981 C 260.246 388.661,259.569 388.400,259.435 388.400 C 257.960 388.400,252.671 383.366,251.353 380.708 C 248.875 375.709,249.000 376.838,249.000 359.413 L 249.000 343.400 250.125 340.525 C 252.795 333.705,258.565 329.188,266.159 327.971 C 269.520 327.433,279.109 327.827,281.400 328.597 M268.000 338.578 C 265.772 339.743,264.700 341.165,263.855 344.072 C 262.933 347.243,262.892 371.157,263.804 374.161 C 266.230 382.161,276.976 382.895,280.512 375.303 C 281.815 372.506,281.880 346.143,280.591 343.182 C 278.314 337.950,272.952 335.989,268.000 338.578 M276.301 339.150 C 280.331 341.207,280.793 343.237,280.797 358.918 C 280.801 375.004,280.348 376.981,276.199 378.989 C 272.360 380.846,267.374 379.496,265.302 376.038 L 264.200 374.200 264.072 360.499 C 263.987 351.392,264.095 346.068,264.395 344.624 C 265.504 339.283,271.321 336.608,276.301 339.150 M212.233 361.242 C 206.675 363.496,205.087 367.666,207.192 374.481 C 209.422 381.700,220.079 382.810,223.690 376.199 C 225.199 373.435,225.332 366.455,223.922 363.947 C 222.014 360.552,216.869 359.361,212.233 361.242 M219.630 361.411 C 226.265 363.751,226.253 376.048,219.613 379.004 C 215.766 380.717,210.915 379.602,208.800 376.519 C 207.783 375.037,207.119 367.973,207.757 365.429 C 208.462 362.620,215.911 360.099,219.630 361.411 " stroke="none" fill="#fa9344" fill-rule="evenodd"></path><path id="path2" d="M371.229 65.454 L 370.400 66.508 370.394 181.754 C 370.390 253.688,370.245 297.225,370.008 297.600 C 369.673 298.131,352.155 298.212,216.944 298.302 C 90.661 298.386,64.151 298.495,63.630 298.935 C 63.283 299.227,59.975 301.251,56.278 303.433 C 52.581 305.615,49.251 307.584,48.878 307.809 C 48.505 308.035,45.399 309.880,41.977 311.910 C 36.962 314.884,35.505 315.954,34.473 317.417 L 33.193 319.233 33.333 363.517 C 33.475 408.178,33.486 408.917,34.039 408.576 C 34.528 408.274,34.749 408.918,34.854 410.949 C 34.908 411.993,35.126 412.954,35.338 413.085 C 35.566 413.226,35.591 413.110,35.400 412.800 C 35.186 412.454,35.233 412.373,35.538 412.562 C 35.792 412.719,36.000 413.213,36.000 413.661 C 36.000 414.138,36.331 414.561,36.800 414.684 C 37.240 414.799,37.600 415.227,37.600 415.634 C 37.600 416.128,37.800 416.298,38.200 416.145 C 38.665 415.966,38.800 416.239,38.800 417.357 C 38.800 418.672,39.092 419.007,40.100 418.847 C 40.364 418.806,40.578 420.071,40.447 420.900 C 40.421 421.065,40.535 421.162,40.700 421.115 C 40.865 421.068,41.405 421.255,41.900 421.529 C 42.466 421.843,42.800 421.874,42.800 421.614 C 42.800 421.386,42.620 421.200,42.400 421.200 C 42.180 421.200,42.000 421.020,42.000 420.800 C 42.000 420.580,42.270 420.400,42.600 420.400 C 42.930 420.400,43.200 420.739,43.200 421.153 C 43.200 421.582,43.562 422.001,44.040 422.126 C 44.503 422.247,44.762 422.538,44.617 422.773 C 44.456 423.033,44.753 423.200,45.376 423.200 C 45.939 423.200,46.400 423.380,46.400 423.600 C 46.400 423.866,105.600 424.000,223.200 424.000 L 400.000 424.000 400.000 244.200 L 400.000 64.400 386.029 64.400 L 372.058 64.400 371.229 65.454 M167.641 327.440 C 177.480 329.584,182.500 335.020,182.565 343.600 C 182.613 349.950,180.841 352.802,175.100 355.612 C 172.703 356.785,172.706 356.799,175.679 358.000 C 188.043 362.996,187.900 382.269,175.454 388.330 C 162.236 394.767,144.304 391.722,138.691 382.088 C 136.596 378.491,135.437 375.051,135.980 374.038 C 137.040 372.057,151.200 372.997,151.200 375.048 C 151.200 377.415,155.902 380.105,160.039 380.105 C 165.270 380.105,167.937 377.938,168.302 373.389 C 168.886 366.104,166.431 363.629,158.275 363.280 C 152.725 363.043,152.669 362.978,152.863 357.046 C 153.030 351.953,152.726 352.254,158.005 351.950 C 164.850 351.556,166.600 350.153,166.600 345.058 C 166.600 337.040,156.290 335.144,152.573 342.479 C 151.168 345.253,151.329 345.200,144.187 345.200 C 136.442 345.200,135.488 344.513,137.592 340.451 C 137.777 340.093,138.435 338.744,139.054 337.453 C 142.993 329.233,155.602 324.817,167.641 327.440 M222.800 327.435 C 230.911 329.045,235.762 332.901,238.055 339.563 C 239.731 344.428,239.274 344.800,231.626 344.800 C 225.918 344.800,224.400 344.386,224.400 342.831 C 224.400 339.938,217.585 337.258,213.569 338.572 C 208.891 340.102,207.897 341.706,207.669 348.094 C 207.490 353.128,207.888 354.121,209.515 352.698 C 213.422 349.280,223.320 348.568,229.462 351.261 C 244.791 357.984,243.981 382.395,228.200 389.313 C 223.001 391.592,212.351 392.484,208.200 390.988 C 207.320 390.671,206.340 390.409,206.023 390.406 C 202.170 390.366,195.321 384.159,192.773 378.400 L 191.800 376.200 191.800 360.000 C 191.800 340.219,192.298 338.187,198.535 332.541 C 201.835 329.554,205.360 328.140,213.200 326.657 C 214.683 326.376,219.389 326.757,222.800 327.435 M279.457 327.444 C 281.186 327.798,282.780 328.222,283.000 328.386 C 283.220 328.550,283.986 328.881,284.702 329.122 C 288.327 330.341,292.667 334.516,294.556 338.600 C 297.747 345.502,297.860 373.958,294.719 379.693 C 288.185 391.622,271.851 395.601,258.429 388.534 C 249.920 384.055,248.008 378.724,248.003 359.477 C 247.998 337.937,249.848 333.763,261.800 328.352 C 265.046 326.883,274.375 326.403,279.457 327.444 M269.600 338.618 C 264.419 340.408,263.903 342.449,264.072 360.499 L 264.200 374.200 265.302 376.038 C 267.969 380.488,275.273 381.127,278.671 377.208 C 281.912 373.469,281.795 344.332,278.524 340.715 C 276.555 338.538,272.553 337.598,269.600 338.618 M213.600 361.548 C 208.137 363.300,207.465 364.336,207.664 370.702 C 207.865 377.134,210.186 379.800,215.585 379.800 C 221.315 379.800,224.341 376.355,224.369 369.800 C 224.399 362.610,220.237 359.420,213.600 361.548 " stroke="none" fill="#943c04" fill-rule="evenodd"></path><path id="path3" d="M64.858 148.700 L 64.717 297.400 63.858 298.106 C 63.386 298.494,61.414 299.754,59.475 300.906 C 57.536 302.058,55.521 303.270,54.996 303.600 C 54.471 303.930,51.327 305.820,48.011 307.800 C 34.971 315.585,35.317 315.350,34.277 317.149 C 33.302 318.838,33.720 318.748,34.774 317.042 C 35.388 316.048,37.304 314.681,41.907 311.951 C 45.368 309.898,48.505 308.035,48.878 307.809 C 49.251 307.584,52.581 305.615,56.278 303.433 C 59.975 301.251,63.283 299.227,63.630 298.935 C 64.151 298.495,90.661 298.386,216.944 298.302 C 352.155 298.212,369.673 298.131,370.008 297.600 C 370.245 297.225,370.390 253.679,370.394 181.731 L 370.400 66.461 371.400 65.273 L 372.400 64.085 372.400 41.669 C 372.400 19.394,372.395 19.252,371.577 18.993 C 370.660 18.702,370.624 16.917,371.539 17.110 C 371.825 17.170,371.944 17.032,371.802 16.803 C 371.661 16.574,371.412 16.469,371.250 16.569 C 371.088 16.669,370.992 16.039,371.037 15.169 C 371.099 13.954,370.921 13.450,370.270 12.994 C 369.686 12.585,369.606 12.398,370.011 12.394 C 370.510 12.389,370.514 12.333,370.038 12.032 C 369.729 11.836,369.492 11.119,369.511 10.438 C 369.531 9.757,369.368 9.200,369.150 9.200 C 368.931 9.200,368.888 9.425,369.053 9.700 C 369.257 10.040,369.137 10.024,368.677 9.651 C 368.305 9.349,368.000 8.770,368.000 8.364 C 368.000 7.871,367.800 7.702,367.400 7.855 C 367.070 7.982,366.800 7.876,366.800 7.619 C 366.800 7.363,366.968 7.256,367.172 7.383 C 367.377 7.509,367.659 7.429,367.798 7.203 C 368.083 6.743,366.400 5.975,365.838 6.309 C 365.639 6.427,365.607 6.313,365.766 6.055 C 365.925 5.798,366.223 5.691,366.428 5.817 C 366.632 5.944,366.800 5.942,366.800 5.814 C 366.800 5.556,364.750 4.642,364.347 4.720 C 364.208 4.747,364.118 4.461,364.147 4.084 C 364.184 3.601,363.936 3.428,363.300 3.495 C 362.805 3.548,362.400 3.402,362.400 3.172 C 362.400 2.941,362.568 2.856,362.772 2.983 C 362.977 3.109,363.261 3.026,363.402 2.797 C 363.544 2.568,363.511 2.427,363.330 2.485 C 362.712 2.682,360.336 1.487,360.789 1.207 C 361.032 1.056,360.669 0.933,359.981 0.933 C 359.293 0.933,358.568 0.678,358.371 0.367 C 358.067 -0.114,358.010 -0.109,358.000 0.400 C 357.990 0.892,357.925 0.901,357.642 0.455 C 357.351 -0.006,357.263 -0.006,357.080 0.455 C 356.926 0.842,356.854 0.855,356.832 0.500 C 356.806 0.101,327.337 0.000,210.900 0.000 L 65.000 0.000 64.858 148.700 M47.433 7.900 C 47.268 8.065,46.938 8.200,46.700 8.200 C 46.462 8.200,46.192 8.425,46.100 8.700 C 45.845 9.466,46.591 9.294,47.400 8.400 C 48.073 7.656,48.101 7.232,47.433 7.900 M39.200 12.800 C 38.965 13.240,38.922 13.600,39.106 13.600 C 39.531 13.600,40.400 12.741,40.400 12.320 C 40.400 11.699,39.623 12.010,39.200 12.800 M25.476 20.974 C 25.047 21.299,24.917 21.625,25.156 21.773 C 25.378 21.910,25.755 21.657,25.994 21.211 C 26.501 20.263,26.447 20.238,25.476 20.974 M10.899 29.697 C 10.966 29.897,11.191 30.060,11.400 30.060 C 11.609 30.060,11.835 29.897,11.901 29.697 C 11.968 29.497,11.742 29.333,11.400 29.333 C 11.058 29.333,10.832 29.497,10.899 29.697 M4.116 33.936 C 3.722 34.341,3.074 34.789,2.675 34.933 C 2.276 35.077,2.061 35.376,2.198 35.597 C 2.585 36.223,3.600 36.071,3.600 35.387 C 3.600 35.050,3.915 34.645,4.300 34.487 C 4.685 34.329,5.045 33.975,5.100 33.700 C 5.239 33.006,4.953 33.075,4.116 33.936 M278.957 66.633 C 279.293 67.507,279.186 94.364,278.842 95.600 L 278.564 96.600 246.982 96.800 L 215.400 97.000 215.400 116.000 L 215.400 135.000 242.200 135.200 L 269.000 135.400 269.112 149.600 C 269.173 157.410,269.125 164.204,269.005 164.697 L 268.786 165.594 242.093 165.697 L 215.400 165.800 215.200 198.667 C 215.090 216.744,214.850 231.684,214.667 231.867 C 214.046 232.487,173.418 232.279,172.661 231.651 C 171.861 230.986,171.616 68.264,172.414 66.774 C 173.000 65.680,278.538 65.540,278.957 66.633 M37.894 416.239 C 37.574 416.560,37.993 417.600,38.443 417.600 C 38.639 417.600,38.800 417.240,38.800 416.800 C 38.800 416.020,38.376 415.758,37.894 416.239 M42.000 420.629 C 42.000 420.754,42.270 421.127,42.600 421.457 C 43.133 421.990,43.200 421.965,43.200 421.229 C 43.200 420.759,42.940 420.400,42.600 420.400 C 42.270 420.400,42.000 420.503,42.000 420.629 " stroke="none" fill="#fc6c04" fill-rule="evenodd"></path></g></svg>